<svg width="33" height="36" viewBox="0 0 33 36" fill="none" xmlns="http://www.w3.org/2000/svg">
<path d="M16 25C19.8605 25 23 21.8605 23 18C23 14.1395 19.8605 11 16 11C12.1395 11 9 14.1395 9 18C9 21.8605 12.1395 25 16 25ZM16 14.5C17.897 14.5 19.5 16.103 19.5 18C19.5 19.897 17.897 21.5 16 21.5C14.103 21.5 12.5 19.897 12.5 18C12.5 16.103 14.103 14.5 16 14.5Z" fill="#FEFEFE"/>
<path d="M0.468987 25.4448L2.22005 28.5588C3.14987 30.2094 5.38773 30.8286 7.00046 29.8728L7.92678 29.322C8.93984 30.1412 10.0568 30.8146 11.2468 31.3236V32.4C11.2468 34.3854 12.8175 36 14.7489 36H18.2511C20.1825 36 21.7532 34.3854 21.7532 32.4V31.3236C22.9428 30.8145 24.0597 30.1417 25.0732 29.3238L25.9995 29.8746C27.6158 30.8286 29.8484 30.213 30.7817 28.5588L32.531 25.4466C32.9951 24.6199 33.1209 23.6376 32.8809 22.7155C32.6409 21.7935 32.0547 21.007 31.251 20.529L30.3667 20.0034C30.5547 18.676 30.5547 17.3276 30.3667 16.0002L31.251 15.4746C32.0543 14.9962 32.6402 14.2098 32.8802 13.2879C33.1202 12.366 32.9946 11.3838 32.531 10.557L30.7817 7.4448C29.8519 5.7888 27.6158 5.1678 25.9995 6.1272L25.0732 6.678C24.0602 5.85883 22.9432 5.18543 21.7532 4.6764V3.6C21.7532 1.6146 20.1825 0 18.2511 0H14.7489C12.8175 0 11.2468 1.6146 11.2468 3.6V4.6764C10.0572 5.18551 8.94033 5.85825 7.92678 6.6762L7.00046 6.1254C5.38248 5.1696 3.14812 5.7888 2.2183 7.443L0.468987 10.5552C0.00492337 11.3819 -0.120927 12.3642 0.11908 13.2863C0.359087 14.2083 0.945324 14.9948 1.74902 15.4728L2.6333 15.9984C2.4446 17.3251 2.4446 18.6731 2.6333 19.9998L1.74902 20.5254C0.945559 21.0041 0.359596 21.7909 0.119637 22.7131C-0.120322 23.6353 0.00531257 24.6177 0.468987 25.4448ZM6.29303 20.4804C6.09531 19.6692 5.99476 18.8363 5.9936 18C5.9936 17.1684 6.09516 16.3332 6.29128 15.5196C6.38363 15.1404 6.35326 14.7406 6.20475 14.3807C6.05625 14.0208 5.79771 13.7205 5.46828 13.5252L3.50183 12.3552L5.2494 9.243L7.25437 10.4346C7.58134 10.6291 7.96085 10.7093 8.33595 10.6632C8.71104 10.6171 9.06147 10.4472 9.33464 10.179C10.5193 9.0208 11.9478 8.15906 13.5092 7.6608C13.8678 7.54824 14.1819 7.32029 14.4051 7.01051C14.6282 6.70073 14.7488 6.32548 14.7489 5.94V3.6H18.2511V5.94C18.2512 6.32548 18.3718 6.70073 18.5949 7.01051C18.8181 7.32029 19.1322 7.54824 19.4908 7.6608C21.0519 8.15978 22.4803 9.02142 23.6654 10.179C23.9388 10.4467 24.2892 10.6163 24.6642 10.6623C25.0391 10.7084 25.4185 10.6285 25.7456 10.4346L27.7488 9.2448L29.4999 12.357L27.5317 13.5252C27.2025 13.7207 26.9441 14.0211 26.7957 14.3809C26.6472 14.7407 26.6167 15.1404 26.7087 15.5196C26.9048 16.3332 27.0064 17.1684 27.0064 18C27.0064 18.8298 26.9048 19.665 26.707 20.4804C26.6151 20.8598 26.6458 21.2597 26.7946 21.6195C26.9434 21.9793 27.2022 22.2796 27.5317 22.4748L29.4982 23.643L27.7506 26.7552L25.7456 25.5654C25.4187 25.3706 25.0392 25.2902 24.664 25.3363C24.2888 25.3824 23.9384 25.5525 23.6654 25.821C22.4807 26.9792 21.0522 27.8409 19.4908 28.3392C19.1322 28.4518 18.8181 28.6797 18.5949 28.9895C18.3718 29.2993 18.2512 29.6745 18.2511 30.06L18.2546 32.4H14.7489V30.06C14.7488 29.6745 14.6282 29.2993 14.4051 28.9895C14.1819 28.6797 13.8678 28.4518 13.5092 28.3392C11.9481 27.8402 10.5197 26.9786 9.33464 25.821C9.062 25.5517 8.71135 25.3813 8.33591 25.3355C7.96047 25.2897 7.58074 25.371 7.25437 25.5672L5.25115 26.7588L3.50008 23.6466L5.46828 22.4748C5.79782 22.2796 6.05655 21.9793 6.20535 21.6195C6.35416 21.2597 6.38493 20.8598 6.29303 20.4804Z" fill="#FEFEFE"/>
</svg>
