<svg width="40" height="36" viewBox="0 0 40 36" fill="none" xmlns="http://www.w3.org/2000/svg">
<path d="M20.0026 0C8.95715 0 0.00518434 7.48125 0.00518434 16.7143C0.00518434 20.5393 1.55967 24.0429 4.13746 26.8634C2.97355 30.0295 0.551988 32.7134 0.512931 32.7455C-0.00262714 33.308 -0.143234 34.1277 0.153603 34.8348C0.450439 35.542 1.13004 36 1.87994 36C6.68401 36 10.4726 33.9348 12.7457 32.2795C15.0032 33.0107 17.4404 33.4286 20.0026 33.4286C31.048 33.4286 40 25.9473 40 16.7143C40 7.48125 31.048 0 20.0026 0ZM20.0026 29.5714C17.9169 29.5714 15.8547 29.242 13.8784 28.5991L12.1052 28.0205L10.5819 29.1295C9.4649 29.9411 7.93384 30.8491 6.09033 31.4598C6.66057 30.4875 7.21519 29.3946 7.64482 28.2295L8.47284 25.9714L6.86367 24.2196C5.44979 22.6687 3.7547 20.1054 3.7547 16.7143C3.7547 9.62679 11.0428 3.85714 20.0026 3.85714C28.9624 3.85714 36.2505 9.62679 36.2505 16.7143C36.2505 23.8018 28.9624 29.5714 20.0026 29.5714Z" fill="#FEFEFE"/>
</svg>
