<svg width="390" height="72" viewBox="0 0 390 72" fill="none" xmlns="http://www.w3.org/2000/svg">
<path d="M65.728 43.2H27.323V49.44C27.323 50.72 27.323 51.712 27.323 52.416C27.323 53.12 27.3548 53.664 27.4185 54.048C27.5459 54.432 27.737 54.688 27.9917 54.816C28.3102 54.88 28.756 54.912 29.3292 54.912H63.9128C64.3586 54.912 64.7089 54.88 64.9637 54.816C65.2184 54.688 65.3777 54.432 65.4414 54.048C65.5687 53.664 65.6324 53.12 65.6324 52.416C65.6961 51.712 65.728 50.72 65.728 49.44H91.9045C91.7771 52.64 91.7453 55.616 91.809 58.368C91.8727 61.12 91.6816 63.52 91.2358 65.568C90.8536 67.552 90.0256 69.12 88.7518 70.272C87.5417 71.424 85.5674 72 82.8287 72H6.11423C4.64936 72 3.50295 71.968 2.67498 71.904C1.84702 71.84 1.24195 71.68 0.859807 71.424C0.477667 71.104 0.222923 70.624 0.0955431 69.984C0.0318533 69.344 0 68.416 0 67.2V4.8C0 3.584 0.0318533 2.656 0.0955431 2.016C0.222923 1.376 0.477667 0.928003 0.859807 0.672002C1.24195 0.352002 1.84702 0.160002 2.67498 0.0960032C3.50295 0.0320002 4.64936 0 6.11423 0H82.8287C85.5674 0 87.5417 0.575999 88.7518 1.728C90.0256 2.88 90.8536 4.48 91.2358 6.528C91.6816 8.512 91.8727 10.88 91.809 13.632C91.7453 16.384 91.7771 19.36 91.9045 22.56H65.728C65.728 21.344 65.6961 20.384 65.6324 19.68C65.6324 18.912 65.5687 18.336 65.4414 17.952C65.3777 17.568 65.2184 17.344 64.9637 17.28C64.7089 17.152 64.3586 17.088 63.9128 17.088H29.3292C28.756 17.088 28.3102 17.152 27.9917 17.28C27.737 17.344 27.5459 17.568 27.4185 17.952C27.3548 18.336 27.323 18.912 27.323 19.68C27.323 20.384 27.323 21.344 27.323 22.56V28.896H65.728V43.2Z" fill="#FF0019"/>
<path d="M163.866 54.24H125.652V72H98.1381V16.896C98.1381 12.416 98.9024 9.024 100.431 6.72C101.96 4.416 103.807 2.784 105.972 1.82401C108.201 0.800003 110.558 0.256001 113.042 0.192001C115.525 0.0639992 117.691 0 119.538 0H168.929C172.751 0 176.063 0.128 178.865 0.384C181.667 0.640001 183.96 1.312 185.744 2.4C187.591 3.48801 188.96 5.184 189.852 7.488C190.743 9.792 191.189 12.992 191.189 17.088V72H163.866V54.24ZM125.652 35.808H163.866V22.752C163.866 21.408 163.802 20.352 163.675 19.584C163.548 18.816 163.325 18.272 163.006 17.952C162.688 17.568 162.242 17.344 161.669 17.28C161.096 17.152 160.363 17.088 159.472 17.088H130.238C129.219 17.088 128.391 17.152 127.754 17.28C127.181 17.408 126.735 17.664 126.416 18.048C126.098 18.432 125.875 19.008 125.748 19.776C125.684 20.48 125.652 21.472 125.652 22.752V35.808Z" fill="#FF0019"/>
<path d="M212.113 45.12C210.202 45.12 208.355 44.8 206.572 44.16C204.788 43.52 203.196 42.56 201.795 41.28C200.394 40 199.279 38.432 198.451 36.576C197.623 34.72 197.241 32.576 197.305 30.144V17.088C197.305 12.992 197.751 9.792 198.642 7.488C199.534 5.184 200.871 3.48801 202.655 2.4C204.502 1.312 206.826 0.640001 209.629 0.384C212.431 0.128 215.743 0 219.564 0H268.956C270.803 0 272.968 0.0639992 275.452 0.192001C277.936 0.256001 280.261 0.800003 282.426 1.82401C284.655 2.784 286.534 4.416 288.063 6.72C289.591 9.024 290.356 12.416 290.356 16.896V24.672H263.033C263.033 23.072 263.001 21.792 262.937 20.832C262.937 19.808 262.778 19.04 262.46 18.528C262.205 17.952 261.759 17.568 261.122 17.376C260.549 17.184 259.689 17.088 258.543 17.088H229.309C228.417 17.088 227.653 17.152 227.016 17.28C226.443 17.344 225.965 17.568 225.583 17.952C225.265 18.272 225.01 18.816 224.819 19.584C224.691 20.352 224.628 21.408 224.628 22.752V26.688H275.548C277.459 26.688 279.306 27.136 281.089 28.032C282.872 28.864 284.464 30.048 285.866 31.584C287.267 33.056 288.381 34.816 289.209 36.864C290.037 38.912 290.419 41.152 290.356 43.584V54.72C290.356 58.816 289.91 62.016 289.018 64.32C288.127 66.624 286.757 68.32 284.91 69.408C283.063 70.496 280.707 71.168 277.841 71.424C275.038 71.68 271.726 71.808 267.905 71.808H218.705C216.858 71.808 214.692 71.776 212.208 71.712C209.724 71.584 207.368 71.04 205.139 70.08C202.973 69.056 201.126 67.392 199.598 65.088C198.069 62.784 197.305 59.392 197.305 54.912V47.136H224.628C224.628 48.8 224.66 50.144 224.723 51.168C224.851 52.128 225.042 52.896 225.296 53.472C225.615 53.984 226.061 54.336 226.634 54.528C227.271 54.656 228.131 54.72 229.213 54.72H258.638C259.53 54.72 260.23 54.688 260.74 54.624C261.313 54.496 261.727 54.24 261.982 53.856C262.3 53.472 262.523 52.928 262.651 52.224C262.778 51.456 262.842 50.4 262.842 49.056V45.12H212.113Z" fill="#FF0019"/>
<path d="M325.132 72V51.648C323.858 51.648 322.266 51.616 320.355 51.552C318.444 51.424 316.438 51.2 314.336 50.88C312.298 50.496 310.228 49.952 308.127 49.248C306.089 48.48 304.21 47.488 302.49 46.272C300.834 44.992 299.497 43.424 298.478 41.568C297.459 39.648 296.949 37.376 296.949 34.752V4.8C296.949 3.584 296.981 2.656 297.045 2.016C297.172 1.376 297.427 0.928003 297.809 0.672002C298.191 0.352002 298.796 0.160002 299.624 0.0960032C300.452 0.0320002 301.598 0 303.063 0H318.158C319.623 0 320.769 0.0320002 321.597 0.0960032C322.425 0.160002 323.03 0.352002 323.412 0.672002C323.794 0.928003 324.017 1.376 324.081 2.016C324.208 2.656 324.272 3.584 324.272 4.8V26.976C324.272 28.64 324.304 29.984 324.368 31.008C324.495 31.968 324.686 32.736 324.941 33.312C325.259 33.824 325.705 34.176 326.278 34.368C326.915 34.496 327.775 34.56 328.858 34.56H358.282C360.066 34.56 361.212 34.24 361.722 33.6C362.295 32.896 362.613 31.328 362.677 28.896V4.8C362.677 3.584 362.709 2.656 362.773 2.016C362.9 1.376 363.155 0.928003 363.537 0.672002C363.919 0.352002 364.524 0.160002 365.352 0.0960032C366.18 0.0320002 367.326 0 368.791 0H383.886C385.351 0 386.497 0.0320002 387.325 0.0960032C388.153 0.160002 388.758 0.352002 389.14 0.672002C389.522 0.928003 389.745 1.376 389.809 2.016C389.936 2.656 390 3.584 390 4.8V34.56C390 38.4 389.108 41.44 387.325 43.68C385.542 45.92 383.249 47.648 380.447 48.864C377.708 50.016 374.619 50.784 371.18 51.168C367.804 51.488 364.46 51.648 361.149 51.648V72H325.132Z" fill="#FF0019"/>
</svg>
