<svg width="37" height="37" viewBox="0 0 37 37" fill="none" xmlns="http://www.w3.org/2000/svg">
<path d="M25.6667 0H11C4.9335 0 0 4.9335 0 11V34.8333C0 35.3196 0.193154 35.7859 0.536971 36.1297C0.880787 36.4735 1.3471 36.6667 1.83333 36.6667H25.6667C31.7332 36.6667 36.6667 31.7332 36.6667 25.6667V11C36.6667 4.9335 31.7332 0 25.6667 0ZM33 25.6667C33 29.711 29.711 33 25.6667 33H3.66667V11C3.66667 6.95567 6.95567 3.66667 11 3.66667H25.6667C29.711 3.66667 33 6.95567 33 11V25.6667Z" fill="#FEFEFE"/>
<path d="M9.16666 12.8333H27.5V16.5H9.16666V12.8333ZM9.16666 20.1667H22V23.8333H9.16666V20.1667Z" fill="#FEFEFE"/>
</svg>
