<svg width="33" height="40" viewBox="0 0 33 40" fill="none" xmlns="http://www.w3.org/2000/svg">
<path d="M16.5 40C18.7687 40 20.625 38.1538 20.625 35.8974H12.375C12.375 38.1538 14.2312 40 16.5 40ZM28.875 27.6923V17.4359C28.875 11.1385 25.5131 5.86667 19.5938 4.47179V3.07692C19.5938 1.37436 18.2119 0 16.5 0C14.7881 0 13.4062 1.37436 13.4062 3.07692V4.47179C7.5075 5.86667 4.125 11.1179 4.125 17.4359V27.6923L0 31.7949V33.8462H33V31.7949L28.875 27.6923ZM24.75 29.7436H8.25V17.4359C8.25 12.3487 11.3644 8.20513 16.5 8.20513C21.6356 8.20513 24.75 12.3487 24.75 17.4359V29.7436Z" fill="#FEFEFE"/>
</svg>
