<svg width="40" height="40" viewBox="0 0 40 40" fill="none" xmlns="http://www.w3.org/2000/svg">
<path d="M27.9527 24.9793C30.0103 22.1713 30.9318 18.6897 30.533 15.2313C30.1342 11.7728 28.4445 8.59248 25.8018 6.32656C23.1591 4.06063 19.7585 2.87621 16.2802 3.01025C12.8019 3.1443 9.50243 4.58692 7.04195 7.04951C4.58147 9.5121 3.14141 12.813 3.00987 16.2919C2.87834 19.7708 4.06503 23.1711 6.33252 25.8125C8.60002 28.4539 11.7811 30.1416 15.2394 30.538C18.6976 30.9344 22.178 30.0102 24.9842 27.9504H24.9821C25.0458 28.0354 25.1138 28.1162 25.1903 28.1948L33.3713 36.3769C33.7697 36.7757 34.3102 36.9998 34.8739 37C35.4376 37.0002 35.9782 36.7764 36.377 36.3779C36.7757 35.9795 36.9998 35.4389 37 34.8751C37.0002 34.3113 36.7765 33.7706 36.378 33.3718L28.1971 25.1897C28.1211 25.1128 28.0394 25.0418 27.9527 24.9772V24.9793ZM28.5009 16.81C28.5009 18.345 28.1987 19.8649 27.6113 21.2831C27.024 22.7012 26.1631 23.9898 25.0779 25.0752C23.9926 26.1605 22.7043 27.0215 21.2863 27.6089C19.8684 28.1964 18.3487 28.4987 16.8139 28.4987C15.2791 28.4987 13.7594 28.1964 12.3414 27.6089C10.9235 27.0215 9.63513 26.1605 8.54989 25.0752C7.46464 23.9898 6.60378 22.7012 6.01645 21.2831C5.42912 19.8649 5.12683 18.345 5.12683 16.81C5.12683 13.71 6.35814 10.7369 8.54989 8.54483C10.7416 6.35277 13.7143 5.12128 16.8139 5.12128C19.9135 5.12128 22.8861 6.35277 25.0779 8.54483C27.2696 10.7369 28.5009 13.71 28.5009 16.81Z" fill="#FEFEFE"/>
</svg>
