<svg width="35" height="32" viewBox="0 0 35 32" fill="none" xmlns="http://www.w3.org/2000/svg">
<path d="M24.103 22.4868L34.5958 12.3771L34.7288 12.2285C34.9257 11.9696 35.0207 11.6497 34.9962 11.3277C34.9718 11.0056 34.8296 10.703 34.5958 10.4754L24.103 0.370243L23.9583 0.2491C23.1183 -0.368044 21.8817 0.226243 21.8817 1.3211V6.18968L21.3567 6.22397C13.0431 6.86854 8.17354 12.0228 7.01156 21.3714C6.86223 22.5714 8.26687 23.3234 9.17686 22.528C12.5158 19.6068 15.9668 17.792 19.5484 17.0651C20.1224 16.9486 20.6987 16.8594 21.2797 16.7977L21.8817 16.7451V21.536L21.8933 21.7234C22.0333 22.7588 23.3143 23.2457 24.103 22.4868ZM21.527 8.50282L24.215 8.32683V3.67996L32.2555 11.424L24.215 19.1726V14.2423L21.051 14.5211H21.0323C17.0587 14.9394 13.3091 16.4983 9.76952 19.0971C10.4648 16.0365 11.6525 13.7348 13.2135 12.0868C15.1501 10.0411 17.8567 8.78854 21.527 8.50054V8.50282ZM5.83324 2.28567C4.28617 2.28567 2.80246 2.88771 1.70852 3.95935C0.614572 5.03099 0 6.48444 0 7.99997V26.2857C0 27.8012 0.614572 29.2547 1.70852 30.3263C2.80246 31.398 4.28617 32 5.83324 32H24.4996C26.0467 32 27.5304 31.398 28.6244 30.3263C29.7183 29.2547 30.3329 27.8012 30.3329 26.2857V24C30.3329 23.6969 30.21 23.4062 29.9912 23.1919C29.7724 22.9775 29.4756 22.8571 29.1662 22.8571C28.8568 22.8571 28.5601 22.9775 28.3413 23.1919C28.1225 23.4062 27.9996 23.6969 27.9996 24V26.2857C27.9996 27.195 27.6308 28.0671 26.9745 28.7101C26.3181 29.3531 25.4279 29.7143 24.4996 29.7143H5.83324C4.905 29.7143 4.01478 29.3531 3.35841 28.7101C2.70204 28.0671 2.3333 27.195 2.3333 26.2857V7.99997C2.3333 7.09065 2.70204 6.21858 3.35841 5.5756C4.01478 4.93261 4.905 4.57139 5.83324 4.57139H12.8331C13.1426 4.57139 13.4393 4.45098 13.6581 4.23666C13.8769 4.02233 13.9998 3.73164 13.9998 3.42853C13.9998 3.12543 13.8769 2.83474 13.6581 2.62041C13.4393 2.40608 13.1426 2.28567 12.8331 2.28567H5.83324Z" fill="#FEFEFE"/>
</svg>
