<svg width="34" height="35" viewBox="0 0 34 35" fill="none" xmlns="http://www.w3.org/2000/svg">
<path d="M17 0C15.1321 0 13.3061 0.540188 11.7529 1.55225C10.1998 2.56432 8.9893 4.00281 8.27447 5.68581C7.55964 7.36881 7.37261 9.22074 7.73703 11.0074C8.10144 12.7941 9.00094 14.4352 10.3218 15.7234C11.6426 17.0115 13.3254 17.8887 15.1575 18.2441C16.9895 18.5995 18.8885 18.4171 20.6142 17.7199C22.34 17.0228 23.815 15.8423 24.8528 14.3276C25.8905 12.813 26.4444 11.0322 26.4444 9.21053C26.4444 6.76774 25.4494 4.42501 23.6782 2.6977C21.9071 0.970392 19.5048 0 17 0ZM17 14.7368C15.8792 14.7368 14.7836 14.4127 13.8518 13.8055C12.9199 13.1982 12.1936 12.3352 11.7647 11.3254C11.3358 10.3156 11.2236 9.2044 11.4422 8.1324C11.6609 7.0604 12.2006 6.0757 12.9931 5.30283C13.7856 4.52996 14.7953 4.00363 15.8945 3.7904C16.9937 3.57716 18.1331 3.6866 19.1685 4.10488C20.204 4.52315 21.089 5.23147 21.7117 6.14027C22.3343 7.04907 22.6667 8.11752 22.6667 9.21053C22.6667 10.6762 22.0696 12.0818 21.0069 13.1182C19.9442 14.1546 18.5029 14.7368 17 14.7368ZM34 35V33.1579C34 29.738 32.6069 26.4582 30.1273 24.0399C27.6477 21.6217 24.2845 20.2632 20.7778 20.2632H13.2222C9.71547 20.2632 6.35235 21.6217 3.8727 24.0399C1.39305 26.4582 0 29.738 0 33.1579V35H3.77778V33.1579C3.77778 30.7151 4.77281 28.3724 6.54399 26.6451C8.31517 24.9178 10.7174 23.9474 13.2222 23.9474H20.7778C23.2826 23.9474 25.6848 24.9178 27.456 26.6451C29.2272 28.3724 30.2222 30.7151 30.2222 33.1579V35H34Z" fill="#FEFEFE"/>
</svg>
